<?xml version="1.0" standalone="no"?>
<!DOCTYPE svg PUBLIC "-//W3C//DTD SVG 20010904//EN"
 "http://www.w3.org/TR/2001/REC-SVG-20010904/DTD/svg10.dtd">
<svg version="1.0" xmlns="http://www.w3.org/2000/svg"
 width="554.000000pt" height="626.000000pt" viewBox="0 0 554.000000 626.000000"
 preserveAspectRatio="xMidYMid meet">
<metadata>
Created by potrace 1.15, written by Peter Selinger 2001-2017
</metadata>
<g transform="translate(0.000000,626.000000) scale(0.100000,-0.100000)"
fill="#000000" stroke="none">
<path d="M2791 5125 c-121 -43 -187 -195 -132 -304 25 -48 74 -101 95 -101 9
0 16 -4 16 -10 0 -15 156 -13 182 3 12 6 28 18 36 25 7 6 18 12 23 12 5 0 9 6
9 13 0 7 9 19 20 27 11 8 20 22 20 32 0 9 5 20 10 23 14 9 12 101 -2 144 -7
20 -21 43 -30 52 -10 9 -18 21 -18 26 0 6 -13 16 -30 23 -16 7 -30 15 -30 19
0 10 -77 31 -107 30 -16 -1 -44 -7 -62 -14z"/>
<path d="M2046 4993 c-26 -7 -46 -28 -46 -47 0 -9 -4 -16 -10 -16 -5 0 -10 -7
-10 -15 0 -36 32 -73 265 -311 83 -84 187 -192 233 -239 l82 -86 0 -794 c0
-518 3 -796 10 -800 6 -3 10 -13 10 -21 0 -18 24 -44 39 -44 6 0 11 -4 11 -10
0 -5 25 -10 55 -10 50 0 59 3 90 35 l35 34 2 543 3 543 30 0 30 0 5 -545 c3
-300 7 -546 8 -546 1 -1 15 -16 31 -33 26 -28 35 -31 85 -31 31 0 56 5 56 10
0 6 6 10 13 10 6 0 21 13 32 28 20 26 20 44 22 827 l2 800 199 205 c398 409
399 410 370 463 -21 39 -39 50 -84 50 -43 0 -44 -1 -229 -187 l-186 -187 -356
1 -355 0 -46 49 c-26 27 -75 77 -108 112 -34 35 -87 88 -118 118 -31 30 -56
58 -56 63 0 4 -6 8 -14 8 -8 0 -16 4 -18 9 -4 11 -57 20 -82 14z"/>
<path d="M1594 4584 c-47 -17 -114 -74 -114 -98 0 -9 -4 -16 -8 -16 -4 0 -14
-21 -21 -46 -11 -37 -11 -54 -3 -79 7 -17 12 -39 12 -48 0 -9 5 -17 10 -17 6
0 10 -7 10 -15 0 -20 65 -85 85 -85 8 0 15 -4 15 -10 0 -6 35 -10 85 -10 50 0
85 4 85 10 0 6 7 10 15 10 21 0 79 58 100 99 9 18 19 56 22 85 10 92 -55 188
-147 220 -55 19 -92 19 -146 0z"/>
<path d="M3920 4460 c-8 -5 -27 -10 -42 -10 -16 0 -28 -4 -28 -10 0 -5 -6 -10
-12 -10 -20 0 -64 -42 -88 -85 -40 -72 -28 -191 27 -250 67 -73 173 -96 257
-55 100 48 152 157 122 253 -19 63 -54 114 -88 130 -16 6 -28 15 -28 19 0 5
-15 8 -34 8 -19 0 -38 5 -41 10 -8 13 -26 13 -45 0z"/>
<path d="M1345 4068 c-103 -26 -162 -65 -198 -132 -21 -39 -22 -53 -25 -353
-3 -350 -2 -360 64 -388 41 -17 64 -9 101 34 23 26 23 30 23 299 l0 273 28 -3
27 -3 5 -820 c5 -886 3 -844 59 -892 27 -24 111 -33 111 -13 0 6 7 10 16 10
18 0 36 16 52 47 9 16 12 170 12 556 0 513 1 535 19 540 10 2 26 0 35 -5 14
-8 16 -58 16 -539 0 -587 -2 -567 68 -606 26 -15 102 -17 102 -3 0 6 5 10 11
10 15 0 34 21 53 57 14 29 16 113 16 848 l0 815 30 0 30 0 0 -275 c0 -177 4
-275 10 -275 6 0 10 -5 10 -11 0 -24 33 -42 76 -41 47 0 68 14 84 57 15 39 13
577 -2 629 -26 89 -100 152 -210 179 -55 14 -115 17 -325 16 -142 -1 -276 -6
-298 -11z"/>
<path d="M3648 3933 c-38 -2 -68 -8 -68 -12 0 -5 -13 -11 -28 -14 -39 -8 -107
-70 -131 -121 -20 -40 -21 -60 -21 -350 0 -254 3 -312 15 -336 30 -57 88 -66
135 -22 l30 29 2 274 3 274 30 0 30 0 5 -832 5 -832 29 -30 c58 -60 157 -46
198 29 17 32 18 69 18 561 0 289 2 528 5 531 3 3 17 3 30 0 l25 -4 0 -529 c0
-405 3 -535 13 -552 49 -88 167 -97 217 -15 20 32 20 48 20 856 l0 822 30 0
30 0 0 -254 c0 -261 5 -303 43 -335 17 -13 78 -18 95 -7 9 5 12 110 12 386 l0
378 -32 27 c-18 14 -41 33 -51 41 -9 8 -28 14 -41 14 -14 0 -26 6 -28 12 -3 9
-72 13 -279 13 -151 1 -304 0 -341 -2z"/>
<path d="M2400 2528 c-1 -7 -2 -318 -3 -690 -2 -557 0 -679 11 -683 19 -7 807
-6 826 1 14 6 16 76 16 695 l0 689 -425 0 c-333 0 -425 -3 -425 -12z m454
-564 c3 -9 6 -103 6 -210 l0 -195 -32 3 -31 3 2 167 c1 105 -1 168 -8 172 -6
4 -19 1 -29 -5 -22 -14 -56 -5 -50 14 5 15 97 66 119 67 9 0 20 -7 23 -16z"/>
<path d="M1230 1575 l0 -425 423 2 422 3 3 423 2 422 -425 0 -425 0 0 -425z
m488 178 c15 -10 33 -23 40 -30 15 -14 17 -143 1 -143 -5 0 -8 -4 -4 -9 3 -5
-2 -16 -10 -24 -8 -9 -15 -19 -15 -24 0 -5 -25 -33 -55 -63 -30 -30 -55 -58
-55 -62 0 -4 38 -8 85 -8 77 0 85 -2 85 -19 0 -10 -7 -22 -16 -25 -20 -8 -218
-8 -238 0 -29 11 -17 32 69 119 47 47 85 92 85 100 0 8 5 15 10 15 17 0 12
100 -6 117 -18 19 -100 21 -117 4 -18 -18 -37 -12 -37 12 0 49 122 76 178 40z"/>
<path d="M3513 1835 c-10 -11 -13 -94 -13 -344 l0 -331 23 -5 c12 -3 204 -4
427 -3 l405 3 3 315 c1 173 0 330 -3 348 l-6 32 -412 0 c-343 -1 -414 -3 -424
-15z m515 -171 c27 -23 32 -34 32 -71 0 -37 -5 -50 -31 -74 -28 -26 -29 -30
-12 -36 23 -9 43 -28 43 -42 0 -6 5 -11 10 -11 6 0 10 -20 10 -45 0 -39 -5
-51 -35 -80 -19 -19 -41 -35 -49 -35 -8 0 -18 -4 -21 -10 -3 -5 -26 -10 -50
-10 -24 0 -47 5 -50 10 -3 6 -14 10 -25 10 -20 0 -32 22 -24 45 7 17 34 21 34
5 0 -5 25 -10 55 -10 46 0 60 4 80 25 39 38 30 86 -22 113 -12 7 -32 12 -45
12 -35 0 -51 14 -43 39 5 16 14 21 42 21 20 0 45 7 55 17 23 21 23 72 1 89
-23 17 -77 18 -103 2 -16 -10 -23 -10 -36 4 -14 14 -15 20 -5 32 15 17 38 23
107 25 41 1 56 -4 82 -25z"/>
</g>
</svg>
