<?xml version="1.0" standalone="no"?>
<!DOCTYPE svg PUBLIC "-//W3C//DTD SVG 20010904//EN"
 "http://www.w3.org/TR/2001/REC-SVG-20010904/DTD/svg10.dtd">
<svg version="1.0" xmlns="http://www.w3.org/2000/svg"
 width="300.000000pt" height="300.000000pt" viewBox="0 0 300.000000 300.000000"
 preserveAspectRatio="xMidYMid meet">
<metadata>
Created by potrace 1.15, written by Peter Selinger 2001-2017
</metadata>
<g transform="translate(0.000000,300.000000) scale(0.100000,-0.100000)"
fill="#000000" stroke="none">
<path d="M1295 2660 c-246 -52 -411 -144 -583 -325 -196 -206 -292 -450 -292
-745 0 -309 101 -555 317 -773 290 -292 725 -393 1121 -260 330 111 593 382
693 715 47 159 59 317 35 473 -68 447 -381 792 -821 906 -119 30 -349 35 -470
9z m492 -640 c5 -19 14 -20 119 -20 l114 0 0 -42 c0 -64 -36 -200 -69 -265
-40 -80 -90 -124 -199 -177 -51 -24 -108 -58 -127 -74 -18 -17 -43 -33 -55
-37 -21 -7 -22 -12 -18 -105 4 -105 10 -119 63 -152 30 -18 30 -18 -115 -18
-145 0 -145 0 -115 18 53 33 59 47 63 152 4 93 3 98 -18 105 -12 4 -37 20 -55
37 -19 16 -76 50 -127 74 -109 53 -159 97 -199 177 -33 65 -69 201 -69 265 l0
42 114 0 c105 0 114 1 119 20 5 19 14 20 287 20 273 0 282 -1 287 -20z m-117
-990 l0 -70 -185 0 -185 0 0 70 0 70 185 0 185 0 0 -70z"/>
<path d="M1066 1893 c25 -152 77 -237 176 -293 l38 -21 -20 54 c-25 67 -50
193 -50 253 l0 44 -75 0 -76 0 7 -37z"/>
<path d="M1790 1886 c0 -60 -25 -186 -50 -253 l-20 -54 38 21 c99 56 151 141
176 293 l7 37 -76 0 -75 0 0 -44z"/>
</g>
</svg>
